<?xml version="1.0" encoding="UTF-8" standalone="no"?>
<!DOCTYPE svg PUBLIC "-//W3C//DTD SVG 1.1//EN" "http://www.w3.org/Graphics/SVG/1.1/DTD/svg11.dtd">
<svg width="100%" height="100%" viewBox="0 0 2452 1562" version="1.1" xmlns="http://www.w3.org/2000/svg" xmlns:xlink="http://www.w3.org/1999/xlink" xml:space="preserve" xmlns:serif="http://www.serif.com/" style="fill-rule:evenodd;clip-rule:evenodd;stroke-linejoin:round;stroke-miterlimit:2;">
    <g transform="matrix(1,0,0,1,-1375.902647,-819.22178)">
        <path d="M3133.755,928.292C3139.668,915.07 3144.956,880.596 3166.742,888.837C3189.669,897.51 3188.362,899.745 3190.344,900.451C3217.845,910.25 3200.306,938.924 3197.347,953.685C3197.235,962.136 3195.157,961.686 3194.156,971.758C3192.855,974.658 3189.41,982.337 3180.881,1009.204C3174.654,1028.819 3174.565,1037.948 3171.727,1048.802C3170.706,1047.902 3169.584,1047.121 3168.563,1046.221C3165.984,1043.949 3165.819,1045.718 3164.158,1046.311C3156.479,1049.053 3155.92,1048.107 3155.817,1048.795C3155.055,1053.864 3154.628,1053.478 3151.365,1057.603C3151.232,1061.854 3151.868,1061.933 3156.072,1063.055C3161.898,1059.565 3162.326,1058.74 3168.342,1062.058C3166.428,1067.72 3166.566,1067.473 3163.58,1072.63C3157.567,1083.017 3167.369,1092.997 3153.805,1097.749C3147.507,1099.956 3156.411,1103.677 3154.834,1112.591C3154.644,1113.663 3154.176,1114.673 3153.986,1115.745C3153.661,1115.424 3145.732,1106.503 3145.787,1112.875C3145.838,1118.876 3146.669,1118.535 3150.295,1123.485C3145.753,1142.455 3146.302,1142.412 3140.469,1161.019C3139.194,1165.087 3132.658,1165.024 3134.886,1168.86C3135.558,1170.016 3137.314,1170.356 3137.821,1171.593C3138.156,1172.41 3136.917,1172.13 3134.912,1182.245C3132.831,1192.747 3129.106,1194.544 3128.882,1195.565C3128.681,1196.483 3130.342,1197.171 3130.14,1198.09C3125.032,1201.113 3110.833,1205.177 3118.877,1208.498C3119.796,1208.877 3121.086,1207.861 3121.859,1208.485C3123.598,1209.889 3123.945,1212.588 3125.684,1213.992C3123.703,1218.963 3123.708,1218.928 3123.545,1219.361C3123.085,1220.582 3123.335,1220.406 3122.788,1221.858C3116.413,1229.167 3116.392,1229.05 3113.986,1238.522C3107.836,1261.442 3112.31,1261.331 3112.688,1262.083C3111.817,1270.44 3109.376,1272.977 3108.696,1273.685C3105.543,1276.666 3105.288,1276.572 3104.672,1280.806C3103.068,1291.848 3099.998,1290.958 3098.645,1302.022L3102.14,1307.366C3092.215,1317.435 3098.239,1333.639 3091.394,1341.93C3090.296,1343.26 3088.361,1343.926 3087.642,1345.493C3087.293,1346.253 3089.068,1346.999 3088.719,1347.759C3088.795,1347.966 3091.916,1349.162 3090.698,1353.125C3087.457,1363.668 3091.073,1365.955 3081.942,1372.258C3076.125,1376.273 3085.257,1378.946 3081.261,1384.845C3078.775,1388.516 3079.382,1388.643 3079.243,1392.944C3079.139,1396.192 3070.638,1399.821 3073.843,1406.116C3079.617,1417.458 3070.687,1433.265 3067.858,1435.369C3061.63,1440.503 3064.143,1441.808 3061.638,1449.226C3058.499,1454.587 3056.524,1458.064 3062.699,1457.577C3071.281,1456.901 3073.241,1459.339 3075.432,1458.274C3076.691,1457.661 3076.296,1457.392 3078.566,1450.776C3083.523,1450.815 3084.262,1449.318 3087.4,1453.372C3092.475,1459.926 3115.078,1451.837 3116.643,1453.081C3122.168,1457.473 3122.585,1456.424 3150.749,1457.345C3154.403,1457.464 3162.223,1443.695 3163.274,1424.735C3172.956,1424.485 3180.472,1416.42 3171.372,1418.174L3165.43,1416.707C3166.634,1413.348 3177.588,1389.314 3179.262,1371.517C3179.786,1365.949 3200.583,1306.104 3206.141,1275.44C3206.556,1273.152 3225.079,1225.367 3229.828,1200.717C3229.949,1200.088 3245.212,1159.111 3246.558,1155.497C3255.359,1131.868 3248.185,1129.614 3260.426,1107.754C3261.514,1105.812 3258.447,1104.996 3268.67,1081.17C3269.952,1078.183 3269.216,1077.946 3283.088,1043.181C3284.971,1038.462 3284.941,1038.639 3288.449,1034.712C3291.657,1031.121 3286.304,1026.613 3289.907,1022.586C3291.132,1021.217 3292.619,1020.102 3293.897,1018.781C3299.27,1013.223 3295.998,1010.683 3296.445,1008.766C3296.889,1006.866 3298.673,1005.345 3298.776,1003.397C3298.924,1000.602 3294.716,1000.124 3299.396,992.504C3304.876,983.583 3299.215,979.996 3308.391,974.546C3311.508,972.695 3307.134,968.07 3309.078,964.016C3313.981,953.788 3310.251,953.15 3312.147,942.049C3313.301,935.289 3321.491,931.536 3322.223,929.195C3326.523,915.425 3328.14,916.289 3332.891,902.462C3336.374,892.327 3339.939,893.138 3338.43,885.979C3336.384,876.267 3345.871,861.026 3344.846,851.609C3344.257,846.206 3349.327,843.278 3348.039,838.209C3339.096,803.042 3367.276,826.691 3385.261,830.912C3389.781,831.973 3406.037,835.788 3435.159,860.566C3457.911,879.925 3439.004,903.537 3419.596,990.114C3418.702,994.102 3407.531,1029.377 3406.453,1032.782C3403.849,1041.004 3403.496,1040.657 3401.713,1048.944C3395.551,1077.584 3387.955,1076.444 3386.451,1096.908C3385.703,1107.08 3381.763,1108.564 3378.209,1126.396C3376.192,1136.517 3365.343,1151.045 3366.534,1166.269C3366.805,1169.739 3366.169,1169.438 3361.319,1182.192C3360.643,1190.138 3358.726,1194.287 3358.276,1195.261C3353.483,1192.231 3352.755,1193.126 3350.246,1187.993C3348.365,1184.145 3347.431,1185.485 3343.173,1185.6C3333.652,1184.857 3333.613,1184.331 3332.387,1185.361C3325.285,1191.328 3342.345,1189.696 3343.276,1189.607C3349.911,1196.043 3355.457,1197.995 3356.667,1198.421C3353.696,1205.085 3353.072,1210.187 3347.929,1211.368C3341.577,1212.827 3346.136,1215.799 3346.463,1216.012C3355.389,1221.83 3348.452,1223.735 3343.58,1233.206C3341.849,1236.875 3342.471,1237.169 3340.364,1238.497C3334.963,1241.903 3342.331,1245.191 3336.579,1253.698C3332.163,1260.23 3335.209,1261.696 3330.118,1267.917C3328.813,1269.511 3329.811,1269.6 3331.646,1272.975C3331.786,1273.232 3331.646,1272.975 3330.44,1276.429C3328.52,1276.865 3326.459,1275.75 3324.54,1276.186C3323.471,1276.429 3320.652,1279.766 3320.579,1280.921C3320.142,1287.85 3323.674,1282.104 3329.449,1278.27C3328.657,1282.371 3329.74,1297.3 3317.307,1308.798C3311.315,1314.338 3320.297,1318.376 3316.644,1326.565C3314.659,1331.014 3311.075,1349.874 3306.085,1358.65C3303.884,1362.521 3304.977,1384.499 3298.301,1391.166C3296.616,1392.848 3299.374,1393.887 3290.327,1419.844C3284.686,1436.027 3287.207,1436.874 3281.427,1446.276C3277.089,1453.333 3284.134,1449.702 3292.082,1451.254C3299.898,1452.782 3299.653,1453.245 3307.709,1453.233L3313.477,1447.885L3319.289,1447.469C3325.82,1445.657 3352.989,1392.023 3354.864,1388.122C3372.348,1351.734 3379.152,1345.103 3380.327,1341.654C3386.972,1322.147 3410.46,1282.653 3424.584,1256.834C3431.594,1244.019 3453.818,1202.749 3456.332,1196.799C3476.238,1149.693 3493.866,1117.912 3497.594,1114.031C3513.205,1097.778 3542.409,1131.473 3562.614,1149.353C3570.492,1156.326 3568.963,1157.492 3576.376,1164.961C3584.218,1172.862 3582.697,1173.742 3585.615,1184.452C3586.201,1186.603 3612.862,1211.376 3615.481,1214.872C3621.856,1223.382 3617.16,1223.826 3613.346,1228.346C3610.998,1231.127 3615.664,1232.261 3606.434,1273.309C3604.73,1280.887 3596.867,1276.5 3597.46,1284.175C3598.432,1296.755 3589.436,1341.641 3592.34,1345.598C3595.569,1349.999 3590.099,1351.284 3589.887,1351.745C3588.129,1355.583 3592.362,1356.231 3589.757,1359.742C3582.61,1369.37 3586.363,1370.69 3588.604,1375.325C3593.172,1384.771 3583.035,1412.652 3587.252,1421.172C3588.499,1423.691 3592.293,1425.216 3584.395,1431.187C3579.881,1436.642 3582.018,1437.565 3587.209,1442.408C3588.592,1448.076 3588.479,1448.045 3586.314,1453.365C3582.954,1461.619 3669.188,1452.453 3689.556,1456.478C3696.386,1457.828 3696.518,1457.504 3701.846,1453.126C3703.486,1451.78 3736.574,1452.029 3737.237,1452.317C3751.191,1458.381 3752.17,1453.424 3766.62,1457.728C3772.857,1459.586 3776.613,1446.706 3780.357,1453.953C3784.734,1462.424 3785.84,1454.346 3788.399,1451.907C3794.626,1445.971 3794.946,1446.589 3801.282,1440.742C3801.328,1440.7 3808.818,1424.331 3820.378,1429.898C3826.919,1433.048 3821.91,1435.731 3826.315,1448.579C3829.468,1457.775 3825.265,1457.894 3825.963,1467.551C3825.973,1467.681 3826.936,1468.062 3815.318,1494.532C3812.386,1501.214 3811.024,1500.487 3809.347,1507.575C3807.819,1514.036 3803.182,1515.884 3798.563,1528.84C3791.892,1547.549 3778.189,1539.052 3758.836,1538.108C3749.192,1537.689 3749.539,1534.98 3740.015,1535.922C3736.162,1536.303 3736.384,1537.462 3724.159,1537.232C3722.229,1537.136 3722.419,1536.294 3700.099,1535.027C3699.671,1535.003 3699.709,1534.951 3694.842,1534.002C3687.977,1531.804 3685.015,1529.915 3683.977,1537.754C3672.705,1533.559 3604.733,1534.869 3574.457,1537.586L3569.494,1538.854C3560.546,1538.587 3559.652,1540.098 3559.226,1540.818C3558.888,1541.39 3558.604,1542.783 3567.033,1543.646C3564.416,1553.388 3565.325,1580.434 3559.428,1592.363C3554.766,1594.151 3554.374,1593.859 3554.411,1594.288L3559.018,1596.753C3558.766,1605.044 3557.11,1604.715 3556.792,1613.072C3556.409,1623.157 3552.774,1622.18 3552.102,1622.568C3540.978,1624.176 3544.549,1628.531 3545.029,1639.62C3545.229,1644.235 3546.522,1643.495 3550.817,1647.796C3550.713,1648 3545.579,1647.815 3552.218,1661.326C3552.44,1661.776 3557.242,1665.225 3552.577,1668.057C3550.872,1669.092 3551.788,1669.66 3536.926,1687.471C3525.796,1700.808 3539.493,1706.121 3533.768,1710.976C3526.347,1717.27 3532.086,1718.703 3533.6,1728.358C3530.455,1727.015 3520.826,1721.1 3519.736,1725.373C3518.794,1729.069 3522.256,1727.884 3528.953,1743.088C3520.877,1748.443 3523.719,1750.313 3521.184,1759.685L3521.386,1762.256C3521.421,1762.999 3519.281,1763.397 3521.498,1764.629C3521.62,1764.697 3522.489,1765.18 3522.926,1765.636C3524.243,1767.008 3525.305,1768.115 3518.443,1788.98C3516.392,1795.217 3505.429,1788.979 3506.639,1794.291C3506.841,1795.179 3508.735,1794.879 3508.938,1795.767C3516.308,1796.382 3510.84,1835.883 3510.375,1846.885C3509.853,1859.224 3510.416,1859.363 3503.952,1873.437C3499.585,1882.946 3503.357,1884.669 3496.323,1892.289C3481.775,1908.049 3499.07,1915.139 3489.612,1925.491C3484.147,1931.474 3492.667,1933.219 3488.82,1943.224C3486.554,1949.115 3488.029,1949.705 3483.698,1954.278C3478.434,1959.838 3472.022,1996.812 3463.924,2000.425C3445.011,2008.864 3408.205,1994.674 3405.692,1993.053C3402.357,1990.903 3393.394,1990.809 3385.221,1978.783C3379.385,1970.195 3387.345,1946.304 3389.374,1917.688C3390.982,1895.009 3389.113,1893.468 3400.44,1882.783C3406.78,1876.803 3421.264,1804.875 3425.25,1787.609C3425.974,1784.471 3424.063,1784.249 3431.742,1747.89C3433.707,1738.585 3431.247,1738.271 3450.181,1630.446C3450.442,1628.955 3450.129,1628.941 3452.85,1611.71C3454.772,1599.534 3455.553,1599.87 3456.318,1587.597C3457.705,1565.348 3468.895,1533.451 3460.268,1533.393C3459.824,1533.39 3459.859,1533.43 3454.744,1533.896C3461.377,1527.708 3460.62,1526.805 3460.138,1526.231L3454.663,1524.532L3447.371,1526.956C3446.997,1527.302 3447.806,1527.433 3446.971,1533.313C3441.178,1531.153 3441.159,1532.307 3436.217,1532.845C3432.091,1532.621 3432.243,1532.818 3428.14,1531.495C3426.23,1528.166 3426.211,1528.315 3422.763,1526.991C3415.335,1524.139 3415.523,1524.047 3415.016,1524.255C3414.294,1524.553 3414.141,1525.167 3420.228,1532.506C3413.553,1531.41 3413.642,1530.713 3407.251,1532.679C3407.863,1530.763 3406.123,1530.984 3406.774,1528.947C3407.43,1526.893 3409.129,1528.184 3409.428,1525.866C3409.621,1524.371 3402.044,1524.194 3401.387,1524.178C3393.848,1524.002 3398.698,1531.329 3399.067,1533.146C3392.561,1531.522 3391.967,1532.891 3390.008,1539.398C3386.898,1549.73 3366.776,1546.593 3377.73,1557.954C3386.126,1566.663 3383.305,1586.843 3367.628,1604.372C3358.444,1614.641 3363.856,1638.425 3351.778,1655.094C3346.909,1661.814 3351.277,1663.568 3346.101,1670.799C3342.932,1675.226 3345.445,1708.878 3328.254,1744.416C3323.484,1754.278 3329.022,1780.155 3305.431,1781.114C3270.012,1782.555 3269.326,1768.451 3260.358,1765.458C3257.128,1764.379 3239.436,1758.474 3223.64,1743.918C3210.919,1732.195 3226.782,1715.48 3235.612,1686.171C3237.634,1679.46 3240.578,1663.037 3251.477,1643.308C3253.526,1639.599 3251.58,1630.182 3267.58,1598.05C3272.421,1588.329 3274.159,1577.333 3278.998,1563.646C3283.786,1552.524 3282.128,1552.135 3286.17,1542.051C3286.303,1541.719 3292.523,1533.825 3287.546,1533.301C3285.438,1533.08 3285.525,1533.182 3268.295,1533.373L3265.374,1533.608L3259.607,1533.897C3249.102,1549.868 3256.51,1552.769 3247.048,1569.2C3240.934,1568.841 3237.323,1565.87 3238.466,1571.737C3238.591,1572.379 3238.772,1573.309 3246.199,1574.412C3245.012,1582.83 3244.72,1582.578 3240.176,1589.652C3225.66,1595.016 3232.813,1602.678 3233.027,1603.749C3239.63,1614.944 3237.606,1615.613 3233.866,1627.898C3233.167,1630.195 3226.007,1653.712 3226.131,1656.903C3227.371,1688.94 3196.137,1695.032 3208.679,1703.132C3216.63,1708.267 3202.463,1707.912 3202.341,1712.982C3202.041,1725.571 3199.74,1725.135 3199.793,1726.211C3200.043,1731.25 3202.301,1726.415 3207.044,1725.114C3209.452,1724.454 3214.295,1730.162 3200.553,1742.043L3198.372,1747.069C3194.896,1750.363 3193.743,1752.625 3198.481,1753.505C3205.754,1754.856 3203.505,1758.347 3198.119,1763.315C3193.708,1767.382 3199.224,1768.396 3199.499,1768.971C3200.536,1771.132 3192.19,1773.079 3193.448,1776.971C3195.542,1783.454 3194.932,1783.417 3195.257,1790.29C3195.567,1796.836 3183.164,1795.912 3184.054,1803.776C3185.025,1812.363 3193.136,1811.898 3186.891,1829.908C3178.895,1852.965 3185.148,1854.838 3173.306,1876.304C3165.521,1890.418 3166.566,1895.272 3166.93,1896.963C3158.128,1904.565 3162.255,1907.119 3162.137,1908.951C3158.44,1912.141 3156.47,1911.752 3157.792,1918.547C3158.855,1924.009 3154.255,1926.575 3154.307,1926.831C3154.491,1927.742 3156.866,1928.061 3151.918,1937.563C3151.63,1938.116 3151.441,1938.479 3146.67,1943.322C3141.458,1940.562 3139.9,1936.87 3137.558,1942.389C3134.445,1949.727 3134.499,1949.678 3134.21,1950.301L3135.661,1956.696C3132.524,1961.481 3130.458,1960.682 3131.074,1966.459C3131.475,1970.219 3136.598,1970.304 3137.741,1971.396C3143.874,1977.259 3128.157,1974.737 3128.563,1979.859C3128.711,1981.723 3134.095,1982.346 3134.348,1982.577C3141.894,1989.473 3131.353,1996.169 3130.355,1996.802C3125.663,1999.782 3132.496,2002.865 3126.414,2011.566L3126.362,2014.135C3124.226,2019.263 3124.087,2019.194 3124.056,2019.673C3123.615,2026.422 3151.263,2041.022 3121.655,2042.033C3119.738,2045.356 3117.917,2046.903 3121.78,2047.694C3123.105,2047.965 3124.504,2047.182 3125.829,2047.453L3128.003,2048.084C3128.946,2051.606 3128.973,2051.504 3127.453,2054.9C3126.554,2054.708 3117.048,2052.677 3115.986,2054.324C3115.453,2055.149 3114.208,2058.193 3127.116,2059.506C3127.711,2079.34 3119.91,2099.028 3118.625,2102.27C3113.167,2104.432 3111.906,2103.134 3110.4,2107.52C3104.988,2123.284 3112.528,2123.021 3115.66,2123.755C3113.684,2130.665 3112.681,2138.246 3112.513,2139.521C3111.021,2150.803 3099.535,2150.15 3104.477,2161.419C3111.814,2178.149 3086.743,2173.913 3090.097,2198.549C3088.569,2205.979 3088.318,2205.93 3088.446,2206.573C3090.171,2215.218 3090.964,2215.185 3089.612,2217.198C3076.331,2236.968 3060.754,2235.345 3070.099,2238.916C3080.657,2242.95 3077.376,2245.954 3078.281,2257.065C3078.689,2262.073 3065.306,2292.298 3060.095,2302.409C3052.978,2303.183 3052.98,2302.962 3052.413,2303.209C3045.996,2306.004 3057.629,2309.523 3058.302,2309.726C3063.647,2319.356 3055.129,2338.076 3048.709,2344.527C3048.219,2344.654 3043.317,2345.924 3043.16,2347.581C3042.681,2352.621 3045.399,2350.167 3050.306,2349.689C3051.553,2354.629 3049.913,2354.3 3047.339,2358.68C3043.252,2365.637 3050.039,2370.09 3035.858,2379.411C3030.242,2383.102 3012.948,2376.434 3012.578,2376.207C2987.109,2360.528 2934.264,2353.457 2949.284,2318.946C2969.875,2271.636 3002.933,2090.223 3018.079,2043.903C3020.523,2036.427 3020.109,2025.905 3020.303,2025.049C3048.685,1899.73 3047.846,1899.627 3050.838,1888.871C3051.685,1882.611 3085.662,1726.752 3087.116,1723.861C3093.449,1711.27 3091.009,1710.724 3094.013,1696.831C3111.033,1618.127 3113.085,1618.649 3114.265,1611.753C3121.048,1572.095 3125.309,1573.318 3133.209,1533.961L3133.895,1526.969C3130.213,1525.693 3130.607,1525.094 3126.643,1524.455C3126.472,1524.427 3114.878,1517.19 3117.562,1523.199C3120.416,1529.589 3118.996,1529.576 3118.642,1533.159C3108.685,1535.234 3108.864,1535.023 3108.026,1535.238C3111.151,1529.051 3113.579,1528.166 3110.435,1526.75C3107.851,1525.586 3108.033,1526.397 3103.229,1527.26C3099.723,1526.642 3094.413,1523.461 3092.739,1524.352C3081.649,1530.252 3075,1523.537 3076.902,1529.853C3077.524,1531.918 3080.577,1532.625 3081.198,1534.69C3081.177,1534.687 3079.733,1532.637 3065.366,1535.212C3070.728,1528.742 3070.776,1528.842 3071.157,1528.224C3073.273,1524.791 3056.198,1529.107 3053.796,1526.685C3052.972,1525.855 3053.405,1524.224 3052.582,1523.393C3049.35,1521.535 3049.195,1521.581 3045.777,1523.236C3034.328,1533.183 3032.678,1523.654 3028.049,1523.447C3021.647,1523.159 3021.661,1522.149 3015.784,1524.681L3014.692,1529.454C3015.313,1530.235 3016.884,1527.652 3017.504,1528.432C3017.565,1528.441 3021.536,1526.5 3033.022,1532.573C3039.232,1535.855 3038.395,1536.717 3039.744,1537.775C3036.994,1545.099 3043.788,1547.05 3037.623,1552.256C3034.688,1554.735 3038.772,1561.119 3038.356,1563.554C3037.559,1568.228 3030.741,1565.96 3024.395,1603.516C3020.52,1626.449 3017.744,1625.664 3017.484,1627.656C3013.865,1655.395 3011.089,1654.523 3010.896,1656.914C3010.107,1666.687 3006.896,1665.842 3006.505,1675.63C3005.85,1692.027 2998.93,1694.677 2997.853,1702.211C2994.912,1722.786 2992.01,1722.036 2991.939,1723.827C2991.565,1733.326 2991.435,1733.107 2989.112,1742.531C2981.732,1772.468 2981.57,1774.163 2981.301,1776.975C2980.226,1788.215 2978.253,1787.625 2975.996,1798.541C2974.408,1806.224 2978.943,1813.373 2974.688,1819.635C2963.948,1835.437 2973.42,1840.257 2968.141,1848.164C2954.732,1868.249 2963.37,1875.583 2955.039,1882.693C2946.361,1890.1 2954.42,1892.614 2951.953,1902.612C2945.51,1928.728 2948.076,1934.534 2946.829,1936.314C2938.318,1948.472 2942.423,1949.823 2938.492,1963.982C2936.964,1969.489 2934.01,1984.582 2933.927,1984.781C2919.338,2019.741 2931.029,2023.899 2916.159,2046.453C2911.374,2053.71 2917.201,2054.791 2914.226,2062.943C2905.603,2065.224 2907.113,2067.404 2907.557,2067.899C2908.812,2069.299 2911.389,2068.937 2912.644,2070.337C2909.014,2080.51 2908.344,2080.14 2908.318,2081.065C2908.017,2091.919 2904.723,2090.744 2904.85,2091.624C2905.123,2093.509 2906.691,2095.063 2906.908,2096.956C2907.029,2098.009 2906.309,2099.007 2905.804,2099.94C2901.747,2107.429 2903,2129.164 2898.704,2136.095C2891.723,2147.359 2893.754,2148.01 2890.818,2161.038C2885.528,2188.381 2882.613,2187.738 2882.919,2190.13C2883.696,2196.183 2877.499,2218.718 2870.407,2227.435C2866.24,2228.174 2865.346,2226.88 2863.396,2230.711C2858.999,2239.345 2860.594,2240.484 2868.151,2246.317C2868.551,2259.997 2849.176,2312.559 2847.789,2326.475C2847.18,2332.59 2841.989,2331.23 2839.967,2334.87C2838.592,2337.344 2830.257,2352.35 2804.775,2338.472C2787.092,2328.841 2786.545,2330.453 2785.026,2329.623C2768.634,2320.661 2768.32,2321.511 2766.977,2320.617C2758.32,2314.854 2751.163,2316.029 2748.811,2314.419C2717.94,2293.293 2725.365,2285.069 2731.411,2264.881C2740.504,2234.52 2747.6,2236.957 2749.469,2216.887C2751.13,2199.046 2754.034,2199.778 2757.566,2182.124C2759.49,2172.506 2760.634,2173.062 2762.859,2163.496C2766.634,2147.27 2771.358,2144.421 2772.599,2137.106C2776.533,2113.917 2780.301,2114.9 2783.654,2091.773C2784.593,2085.297 2789.406,2080.838 2790.057,2078.118C2792.557,2067.675 2791.844,2067.685 2794.236,2057.248C2798.185,2040.008 2795.824,2039.848 2796.322,2038.417C2801.496,2023.517 2803.117,2024.175 2805.511,2008.754C2809.624,1982.257 2811.057,1982.78 2818.721,1960.671C2820.679,1953.688 2820.682,1953.737 2820.835,1953.13C2822.183,1947.777 2821.788,1947.888 2821.902,1947.439C2825.033,1935.062 2830.182,1937.772 2833.436,1934.405C2840.158,1927.449 2826.516,1927.172 2829.445,1917.877C2832.264,1908.936 2828.378,1908.575 2831.047,1899.754C2839.886,1870.543 2836.446,1869.802 2845.849,1840.702L2849.751,1833.205C2857.288,1812.644 2854.348,1810.939 2857.691,1809.433C2865.656,1805.847 2865.861,1796.714 2866.907,1792.988C2866.684,1787.325 2868.142,1787.062 2864.752,1782.604C2862.704,1779.909 2861.696,1780.418 2862.019,1776.948C2863.614,1759.831 2862.787,1759.907 2863.319,1758.528C2877.105,1722.76 2872.666,1721.557 2873.928,1718.493C2888.413,1683.304 2882.885,1681.574 2884.852,1678.947C2889.03,1673.369 2894.32,1632.1 2901.66,1616.507C2904.628,1610.2 2906.181,1610.61 2905.691,1603.571C2905.124,1595.413 2911.607,1599.831 2916.351,1592.994L2918.081,1587.394C2922.078,1590.519 2923.106,1593.628 2925.539,1589.175C2928.839,1583.13 2927.803,1582.12 2927.362,1581.69C2924.434,1578.837 2923.091,1582.3 2920.314,1579.667C2919.633,1579.021 2920.967,1577.497 2920.286,1576.852L2917.918,1571.775C2917.861,1571.135 2916.492,1569.748 2918.114,1552.864C2918.812,1545.59 2921.866,1546.496 2922.318,1539.364C2921.015,1539.306 2920.085,1537.748 2918.782,1537.69C2912.771,1537.421 2894.669,1545.546 2875.877,1539.955C2872.477,1535.211 2873.297,1534.64 2868.011,1531.766C2861.835,1532.058 2861.947,1531.469 2856.421,1533.009C2850.093,1531.781 2849.971,1532.086 2845.275,1535.593C2834.163,1531.274 2827.348,1531.032 2830.91,1542.443C2830.623,1543.037 2827.625,1549.233 2827.271,1549.837C2823.16,1556.859 2823.404,1580.189 2826.657,1583.797C2833.818,1591.74 2823.735,1597.199 2823.108,1635.587L2821.243,1641.265C2818.954,1658.76 2816.516,1658.158 2814.207,1675.612C2810.729,1688.738 2811.427,1689.089 2809.148,1691.409C2800.077,1700.646 2806.645,1703.622 2800.511,1715.118C2796.499,1722.638 2800.152,1723.929 2795.247,1731.105C2787.855,1741.921 2795.714,1745.232 2794.079,1753.116C2788.406,1780.474 2792.235,1785.137 2785.367,1784.293C2778.536,1783.453 2778.5,1782.618 2772.11,1785.208C2765.803,1787.764 2748.097,1779.683 2743.467,1775.999C2727.343,1763.171 2690.58,1753.412 2692.261,1731.59C2692.445,1729.213 2693.654,1713.508 2696.831,1702.145C2704.303,1675.423 2708.955,1639.147 2712.795,1616.862C2719.497,1577.959 2714.339,1577.265 2716.183,1574.4C2719.488,1569.264 2719.978,1569.624 2720.947,1563.552C2722.478,1553.956 2722.308,1553.956 2722.451,1553.125C2724.15,1543.235 2718.812,1545.273 2709.034,1547.904C2704.616,1568.869 2710.539,1589.618 2702.754,1608.99C2701.709,1611.589 2702.995,1611.828 2697.015,1643.539C2695.451,1651.834 2697.716,1651.823 2695.744,1659.804C2689.828,1683.746 2691.051,1689.247 2691.61,1691.764C2692.122,1694.067 2691.363,1693.921 2688.573,1721.101C2685.219,1753.764 2676.404,1749.598 2673.833,1753.323C2671.03,1757.383 2670.639,1787.916 2666.905,1806.08C2660.093,1809.377 2655.755,1806.909 2657.061,1814.415C2657.199,1815.207 2658.139,1817.955 2666.693,1811.542C2654.828,1864.647 2656.915,1877.908 2651.634,1888.77C2650.421,1891.267 2653.151,1906.039 2648.336,1909.542C2641.5,1914.517 2653.689,1921.534 2648.002,1930.869C2641.653,1941.293 2645.196,1956.012 2643.291,1960.676C2631.091,1990.547 2636.501,2000.883 2638.119,2003.973C2641.71,2010.835 2634.635,2019.064 2633.765,2020.076C2624.806,2030.497 2645.447,2051.216 2630.869,2057.414C2616.01,2063.731 2616.168,2064.327 2614.806,2064.045C2602.364,2061.459 2587.341,2053.564 2582.526,2052.155C2576.847,2050.494 2578.402,2048.079 2563.823,2041.34C2561.685,2040.352 2551.293,2022.899 2551.226,2022.271C2549.603,2006.873 2557.415,2006.308 2569.119,1947.589C2569.779,1944.825 2572.273,1934.383 2576.548,1912.85C2587.669,1864.83 2629.915,1597.015 2629.99,1550.411C2637.156,1538.395 2658.026,1550.711 2648.704,1540.055C2646.83,1537.914 2624.999,1541.92 2620.014,1542.389C2612.901,1542.869 2611.679,1540.242 2607.416,1545.884C2604.424,1544.777 2604.9,1543.948 2601.908,1543.845L2596.059,1541.618C2592.112,1536.954 2591.258,1537.466 2585.476,1539.92C2582.53,1535.557 2582.672,1533.72 2577.616,1535.383C2571.032,1537.548 2573.824,1539.763 2575.981,1546.243L2580.078,1545.335L2582.757,1550.185L2582.763,1552.543C2581.707,1553.264 2579.982,1551.767 2578.926,1552.489C2576.64,1554.051 2581.326,1557.908 2572.288,1561.827C2565.361,1564.83 2569.184,1574.577 2561.473,1598.343C2549.236,1636.054 2577.364,1669.229 2547.981,1667.85C2527.316,1666.88 2530.175,1659.203 2502.321,1647.031C2498.716,1645.456 2470.894,1624.981 2469.097,1611.481C2467.226,1597.428 2473.118,1563.742 2465.532,1554.929L2460.106,1550.071L2454.726,1547.697C2455.406,1547.283 2456.406,1548.481 2457.086,1548.067C2461.944,1545.112 2460.122,1540.728 2454.864,1542.81C2453.063,1543.523 2453.844,1543.953 2453.305,1548.017C2454.881,1553.649 2454.2,1553.641 2455.799,1559.191C2449.513,1571.915 2451.383,1582.299 2441.876,1590.92C2434.903,1594.586 2442.132,1594.795 2442.817,1595.728C2441.631,1600.73 2441.841,1600.807 2441.536,1601.13C2436.455,1606.522 2428.901,1603.025 2431.147,1616.78C2428.558,1622.386 2428.568,1622.366 2429.111,1628.347C2422.205,1647.454 2422.838,1647.553 2421.005,1667.715C2420.123,1677.416 2421.663,1677.667 2417.513,1686.404C2410.903,1700.321 2426.901,1701.861 2419.351,1715.283C2415.14,1722.769 2418.543,1723.303 2416.938,1731.542C2414.408,1744.523 2418.71,1771.59 2401.383,1770.585C2377.51,1769.2 2369.5,1755.016 2364.385,1752.345C2338.799,1738.982 2339.208,1738.815 2336.919,1737.847C2327.727,1733.96 2329.157,1732.179 2321.098,1726.654C2312.767,1720.941 2318.102,1730.647 2314.337,1742.927C2314.154,1745.027 2313.288,1754.973 2311.148,1769.09C2308.838,1771.501 2307.863,1770.365 2306.147,1774.31C2305.821,1775.06 2302.992,1779.236 2302.706,1779.657C2306.482,1784.38 2307.166,1780.769 2311.639,1776.591C2311.591,1779.386 2313.299,1779.435 2309.988,1795.507C2307.5,1807.581 2307.962,1807.454 2308.005,1819.662C2304.895,1835.535 2312.824,1841.251 2299.078,1845.507C2297.803,1847.6 2295.119,1852.008 2293.998,1875.722C2293.673,1882.605 2297.483,1876.394 2304.126,1875.923C2304.223,1899.01 2298.536,1910.246 2297.176,1912.934C2291.477,1924.196 2293.385,1924.602 2291.062,1936.812C2288.961,1947.854 2300.945,1956.074 2292.625,1961.603C2282.753,1968.163 2292.53,1971.909 2294.777,1976.955C2296.212,1980.177 2289.367,1981.35 2288.774,1981.853C2284.663,1985.334 2289.345,1984.896 2293.755,1987.96C2296.548,1989.901 2293.866,1990.037 2291.644,1992.816C2288.567,1996.665 2290.987,1997.124 2290.878,1998.324C2290.071,2007.271 2285.439,2005.967 2285.388,2015.074L2282.953,2019.566C2282.913,2021.011 2284.931,2022.002 2284.891,2023.448C2284.56,2024.369 2282.916,2024.345 2282.585,2025.266C2279.714,2033.254 2287.316,2035.763 2288.243,2036.069C2290.725,2044.91 2287.031,2099.077 2282.718,2109.825C2281.611,2110.469 2275.888,2110.175 2275.684,2118.36C2275.382,2130.499 2281.132,2125.249 2282.371,2125.077C2283.023,2124.986 2283.094,2126.585 2283.746,2126.494C2294.693,2152.862 2258.065,2150.913 2214.705,2128.862C2206.181,2124.527 2165.396,2114.396 2170.318,2089.131C2175.565,2062.197 2204.778,1775.77 2203.962,1750.307C2203.942,1749.699 2205.692,1728.138 2205.848,1726.211C2208.219,1702.249 2219.445,1630.052 2219.455,1592.935C2219.457,1586.031 2221.099,1586.287 2220.653,1579.348C2224.725,1562.081 2204.229,1573.943 2204.541,1574.837C2204.694,1575.275 2204.857,1575.129 2208.804,1578.769C2196.391,1578.65 2194.456,1578.327 2190.051,1590.067C2186.452,1599.659 2184.938,1599.009 2183.282,1609.086C2182.244,1615.404 2166.161,1650.907 2164.539,1654.487C2162.726,1658.49 2165.744,1659.067 2150.538,1707.615C2130.061,1772.989 2133.314,1775.337 2138.193,1778.373C2150.385,1785.96 2149.481,1786.851 2157.53,1798.982C2165.684,1811.272 2130.064,1817.871 2125.794,1830.033C2124.97,1832.377 2119.626,1847.598 2102.465,1850.543C2100.166,1850.938 2100.011,1848.404 2073.374,1852.642C2071.33,1852.967 2023.346,1868.282 2009.68,1876.38C1983.219,1892.06 1981.095,1888.242 1960.853,1879.322C1951.181,1875.06 1932.55,1904.297 1889.928,1874.673C1866.245,1858.213 1820.129,1835.362 1820.825,1819.683C1821.064,1814.283 1820.772,1814.493 1820.716,1808.964L1822.614,1803.953C1823.319,1803.404 1824.577,1804.754 1825.282,1804.205C1833.638,1800.787 1829.311,1795.768 1837.65,1791.905C1842.125,1789.832 1835.488,1789.608 1834.922,1785.137C1834.444,1781.363 1838.85,1767.808 1839.02,1766.353C1839.588,1761.515 1838.404,1760.968 1843.515,1755.258C1857.936,1754.606 1849.684,1747.556 1849.08,1747.882C1848.56,1748.162 1848.677,1748.251 1843.649,1752.871C1843.909,1745.329 1844.846,1745.571 1854.816,1715.727C1856.384,1711.033 1859.893,1713.01 1865.154,1696.949C1866.657,1692.361 1857.815,1694.275 1860.363,1686.344C1861.644,1682.357 1862.655,1679.209 1872.228,1635.367C1878.598,1606.195 1879.59,1605.969 1878.091,1603.893C1874.054,1598.3 1872.258,1603.911 1856.852,1604.144C1861.115,1599.773 1865.474,1598.099 1859.749,1595.896C1857.772,1595.135 1857.907,1596.356 1833.274,1596.139C1826.573,1596.08 1827.322,1597.896 1827.607,1598.289C1828.691,1599.782 1829.387,1598.325 1830.569,1599.666C1832.676,1602.055 1831.394,1602.583 1833.367,1604.82C1826.33,1606.214 1828.662,1608.916 1824.567,1622.035C1823.914,1624.128 1826.5,1624.496 1820.46,1649.132C1818.775,1656.003 1816.926,1655.238 1816.021,1662.249C1815.894,1663.234 1808.902,1691.506 1808.273,1694.048C1806.824,1699.905 1803.765,1699.836 1806.615,1704.94C1809.493,1710.095 1808.422,1710.218 1806.7,1715.733C1804.969,1716.269 1802.996,1715.145 1801.265,1715.68C1793.414,1718.108 1805.885,1720.866 1806.466,1720.994C1804.404,1734.643 1807.138,1735.189 1801.311,1747.682C1795.529,1760.077 1801.604,1761.084 1797.788,1774.051C1797.656,1774.5 1797.725,1774.48 1796.933,1779.837C1797.25,1787.82 1787.414,1849.595 1785.678,1854.612C1784.546,1854.842 1771.908,1857.409 1775.29,1864.637C1775.56,1865.213 1778.042,1866.491 1778.45,1866.361C1783.081,1864.888 1782.503,1867.465 1783.694,1867.789C1777.639,1888.655 1780.088,1888.866 1776.216,1910.208C1773.957,1922.662 1772.342,1946.925 1765.992,1963.327C1760.01,1964.089 1759.942,1964.175 1759.62,1964.583C1757.463,1967.314 1760.304,1966.699 1765.433,1968.977C1763.919,1973.234 1761.225,1973.364 1764.123,1976.851C1767.795,1981.269 1764.518,1991.845 1764.133,1993.086C1760.057,2006.24 1764.259,2006.981 1759.663,2020C1755.601,2031.507 1759.267,2031.939 1756.318,2043.784C1753.243,2056.137 1753.841,2056.074 1753.519,2057.115C1750.601,2066.532 1755.093,2067.179 1751.207,2076.017C1744.093,2092.198 1749.827,2103.78 1744.245,2115.224C1741.242,2121.382 1744.886,2131.885 1744.528,2134.293C1739.756,2166.327 1741.335,2166.551 1740.356,2169.186C1734.862,2183.965 1733.466,2251.559 1729.782,2259.969C1724.824,2271.284 1731.167,2272.394 1727.035,2283.913C1718.814,2306.832 1728.721,2335.761 1720.92,2344.816C1703.099,2365.503 1666.425,2340.153 1643.786,2331.97C1621.404,2323.879 1621.419,2321.059 1616.887,2319.078C1579.53,2302.748 1606.19,2288.986 1608.188,2222.31C1608.545,2210.418 1615.321,2176.078 1615.302,2171.712C1615.186,2145.21 1631.573,2061.062 1633.61,2041.056C1635.887,2018.679 1636.79,2018.874 1652.691,1936.944C1656.494,1924.489 1654.53,1919.708 1656.617,1907.549C1658.668,1895.603 1659.115,1895.879 1661.074,1883.971C1665.478,1884.084 1677.865,1884.159 1666.262,1870.794C1666.727,1869.574 1668.602,1869.282 1669.067,1868.062C1669.915,1865.842 1664.3,1865.949 1668.238,1838.361C1677.924,1770.504 1677.9,1769.648 1677.737,1763.623C1677.3,1747.508 1688.593,1728.242 1692.731,1678.42C1693.902,1664.318 1697.543,1656.244 1699.712,1656.641C1715.486,1659.534 1720.651,1664.451 1725.179,1649.11C1727.296,1641.94 1719.401,1645.046 1718.494,1648.897C1717.266,1654.115 1715.473,1652.363 1710.233,1652.564L1707.562,1652.546C1699.326,1650.643 1699.393,1650.362 1699.02,1649.328C1695.863,1640.579 1698.648,1639.05 1707.932,1638.895C1713.274,1638.806 1711.975,1636.144 1708.612,1631.779C1705.928,1631.006 1706.317,1630.754 1703.751,1630.034C1703.019,1622.307 1702.775,1615.461 1702.729,1614.192C1706.903,1606.67 1705.066,1605.036 1704.478,1604.513C1700.838,1601.274 1696.91,1605.224 1697.363,1606.396C1697.78,1607.473 1699.517,1607.676 1699.886,1608.77C1700.313,1610.033 1699.083,1611.489 1699.51,1612.752C1692.914,1611.259 1693.178,1611.105 1686.546,1611.504C1672.307,1612.359 1672.492,1605.407 1662.539,1608.927C1643.74,1615.575 1637.767,1606.571 1633.226,1619.63C1627.064,1637.354 1629.184,1638.018 1619.716,1654.197C1618.447,1656.364 1619.545,1661.233 1619.194,1662.064C1608.322,1687.862 1615.942,1691.066 1599.568,1713.63C1598.551,1715.032 1599.837,1715.21 1593.637,1734.455C1575.413,1791.025 1570.849,1799.03 1564.54,1817.205C1548.157,1864.401 1551.271,1865.138 1550.65,1867.683C1545.234,1889.861 1535.389,1892.496 1526.032,1939.552C1524.392,1947.797 1500.703,2016.517 1497.199,2019.677C1482.292,2033.121 1469.096,2022 1467.264,2020.457C1463.41,2017.208 1451.824,2015.772 1449.688,2013.713C1435.168,1999.719 1436.195,1998.956 1427.157,1988.223C1414.321,1972.981 1424.818,1967.49 1428.184,1955.762C1437.926,1921.82 1439.878,1920.966 1437.232,1919.589C1435.962,1918.927 1434.257,1919.286 1433.087,1918.459C1431.277,1917.178 1432.148,1912.102 1430.949,1910.036C1425.175,1900.084 1428.726,1899.541 1432.872,1888.825C1437.698,1892.669 1440.385,1895.242 1441.443,1889.048C1442.36,1883.681 1443.678,1884.095 1443.531,1883.657C1443.015,1882.115 1441.218,1881.226 1440.701,1879.684C1442.618,1878.856 1449.161,1876.028 1453.395,1856.887C1454.037,1853.983 1449.377,1851.314 1447.575,1857.438C1446.908,1859.708 1446.893,1862.152 1446.107,1864.384C1444.383,1869.281 1440.705,1867.866 1440.362,1868.086C1440.843,1850.021 1443.99,1850.716 1446.663,1833.002C1447.868,1825.022 1451.284,1827.569 1456.62,1824.159C1473.036,1813.665 1470.328,1808.705 1470.554,1806.326C1472.451,1803.022 1472.304,1803.055 1473.682,1801.165C1476.966,1785.757 1481.093,1776.673 1482.013,1774.649C1490.779,1755.351 1489.203,1727.577 1502.304,1732.272C1516.744,1737.448 1514.695,1699.295 1523.509,1701.292C1525.486,1701.739 1526.928,1703.792 1528.941,1704.021C1533.687,1704.562 1529.407,1699.903 1529.17,1699.645C1526.882,1697.155 1519.028,1688.606 1542.43,1659.513L1551.007,1659.918C1551.805,1655.685 1553.276,1654.764 1550.651,1654.124C1550.104,1653.991 1549.15,1653.758 1543.61,1654.026C1542.766,1646.002 1541.869,1646.337 1540.518,1638.199C1539.482,1631.959 1533.675,1632.091 1532.938,1631.688C1527.301,1628.607 1544.793,1612.048 1526.51,1614.089C1509.311,1616.008 1509.276,1613.77 1507.83,1614.149C1488.103,1619.317 1487.999,1617.541 1475.487,1615.199L1471.046,1615.225C1465.606,1619.287 1443.497,1615.688 1441.135,1615.303C1422.629,1612.291 1422.469,1616.242 1403.994,1613.373C1419.13,1601.827 1402.039,1603.993 1401.345,1604.295C1400.73,1604.564 1398.907,1605.359 1400.956,1612.674C1389.673,1608.258 1389.408,1609.017 1385.592,1605.784C1366.37,1589.497 1381.181,1576.361 1384.11,1560.766C1385.306,1554.394 1390.682,1556.2 1393.658,1550.52C1402.068,1534.471 1409.506,1543.621 1430.346,1536.505C1435.66,1534.69 1457.744,1539.056 1467.911,1537.447C1498.327,1532.635 1498.706,1536.661 1507.669,1533.687C1530.102,1526.242 1562.912,1532.465 1568.663,1528.129C1572.533,1525.21 1570.854,1523.957 1574.415,1520.821C1575.368,1519.981 1577.068,1520.429 1578.022,1519.589C1581.153,1518.475 1581.738,1518.98 1582.686,1515.604C1584.019,1510.861 1587.515,1509.566 1587.671,1509.371C1597.047,1511.084 1592.943,1505.662 1592.483,1505.479C1592.081,1505.32 1592.086,1505.427 1587.125,1504.772C1590.625,1499.66 1591.411,1500.278 1593.107,1494.311C1593.627,1492.626 1597.78,1479.182 1599.137,1473.107C1599.744,1469.662 1601.959,1470.871 1602.561,1467.45C1603.309,1463.198 1600.401,1465.575 1600.5,1465.363C1600.921,1464.463 1607.42,1465.515 1606.182,1451.317C1607.65,1447.47 1608.23,1447.485 1606.596,1443.59C1606.453,1443.248 1605.039,1439.877 1607.057,1438.988C1608.524,1438.342 1610.399,1438.91 1611.782,1438.102C1612.772,1437.524 1612.597,1435.753 1613.587,1435.175C1617.443,1429.079 1616.714,1428.5 1620.59,1425.976C1621.629,1425.3 1626.549,1424.723 1627.409,1424.273C1636.957,1419.271 1620.714,1416.311 1623.133,1411.903C1626.218,1406.283 1638.043,1410.556 1631.504,1403.2C1627.561,1398.764 1634.528,1392.654 1631.051,1389.823C1624.923,1384.833 1629.425,1383.562 1630.231,1374.319L1633.645,1369.634C1642.135,1361.097 1640.309,1357.121 1640.138,1352.087L1640.632,1349.489L1641.876,1348.407C1645.374,1343.499 1644.749,1343.196 1649.108,1339.169C1652.502,1342.502 1651.379,1348.041 1654.226,1344.195C1655.708,1342.192 1654.215,1341.783 1655.591,1339.924C1653.696,1334.323 1652.601,1334.875 1651.301,1329.048C1654.636,1323.815 1657.02,1323.584 1654.304,1321.37C1653.721,1320.895 1652.832,1320.171 1646.548,1326.69L1641.92,1325.819L1642.582,1318.123C1643.643,1316.591 1647.325,1311.27 1651.501,1296.611C1654.232,1288.855 1653.413,1288.482 1659.431,1282.913C1668.408,1284.159 1671.976,1286.527 1672.721,1277.322C1676.869,1274.823 1676.197,1274.383 1678.016,1269.76C1683.602,1262.926 1685.537,1265.492 1691.783,1259.511L1693.543,1256.527C1696.737,1255.613 1696.679,1257.818 1699.876,1256.903C1700.133,1256.83 1700.845,1256.626 1701.794,1254.166C1704.517,1247.112 1694.949,1247.16 1693.389,1246.437C1693.278,1246.385 1693.303,1246.18 1693.192,1246.129C1694.309,1235.853 1695.266,1236.33 1701.722,1216.792C1697.248,1207.013 1679.819,1213.661 1687.691,1201.466C1693.55,1192.39 1690.852,1191.024 1697.657,1182.517C1699.115,1180.695 1706.56,1159.994 1728.393,1123.048C1733.017,1129.666 1734.543,1128.766 1735.333,1127.311C1737.446,1123.422 1740.018,1125.095 1740.459,1124.886C1740.916,1125.903 1740.004,1127.214 1740.461,1128.23C1741.247,1129.977 1745.956,1129.075 1746.11,1126.347C1746.165,1125.375 1745.174,1124.533 1745.228,1123.561C1741.16,1121.869 1739.51,1122.721 1739.802,1118.25C1740.037,1114.648 1738.47,1115.573 1733.575,1112.196C1738.081,1108.094 1737.527,1107.141 1743.464,1105.94L1747.042,1103.797C1749.138,1100.637 1748.863,1100.678 1750.646,1096.984C1752.77,1091.932 1753.129,1091.969 1752.936,1091.538C1750.312,1085.677 1745.39,1084.256 1754.696,1074.322C1762.876,1061.756 1759.84,1060.038 1766.924,1051.91C1777.469,1039.811 1776.839,1033.373 1787.784,1014.176L1790.784,1009.293C1795.239,1008.607 1795.313,1008.131 1799.043,1010.854C1799.398,1011.113 1801.654,1012.76 1804.056,1013.081C1828.193,1016.311 1824.127,1025.411 1846.771,1034.904L1848.755,1038.544C1856.552,1044.559 1858.132,1041.784 1862.514,1046.284C1864.182,1047.997 1876.564,1060.712 1884.744,1066.245C1897.756,1075.047 1892.051,1078.441 1894.366,1102.262C1898.201,1141.733 1887.781,1163.283 1891.302,1171.835C1894.08,1178.582 1893.816,1179.025 1889.486,1185.08C1888.505,1186.453 1887.743,1216.016 1885.865,1224.722C1883.557,1235.417 1887.956,1236.069 1883.328,1245.984C1878.984,1255.293 1874.862,1255.191 1879.417,1264.564C1886.274,1278.675 1877.881,1279.283 1878.575,1299.585C1878.801,1306.2 1870.144,1311.695 1873.175,1320.941C1874.048,1323.604 1870.918,1332.172 1870.914,1334.264C1870.871,1354.808 1866.524,1353.91 1862.799,1374.306C1855.66,1413.384 1859.112,1413.798 1858.099,1417.089C1853.053,1433.485 1854.288,1433.876 1853.459,1435.113C1848.604,1442.356 1854.35,1452.027 1849.253,1459.617C1846.86,1463.182 1847.293,1463.163 1847.094,1467.64C1847.01,1469.528 1846.093,1475.125 1845.956,1475.401C1845.054,1477.226 1843.375,1478.65 1842.705,1480.572C1840.834,1485.936 1852.227,1489.044 1837.991,1523.641C1835.055,1534.964 1834.633,1534.74 1835.082,1537.061C1835.152,1537.419 1835.613,1539.805 1838.518,1540.07C1841.821,1540.371 1843.08,1539.599 1843.751,1525.785C1862.993,1523.398 1869.71,1519.597 1873.274,1512.967C1876.893,1506.235 1877.935,1507.45 1883.784,1506.35C1889.165,1510.35 1889.325,1517.22 1892.614,1511.274C1892.885,1510.784 1893.657,1509.388 1889.252,1505.126C1896.691,1505.417 1896.643,1505.434 1897.286,1505.44C1908.338,1505.543 1907.28,1471.357 1914.008,1465.707C1932.537,1450.147 1924.4,1432.411 1936.152,1410.909C1936.648,1409.955 1940.14,1403.25 1940.726,1398.275C1941.926,1388.088 1960.96,1387.709 1963.733,1376.885C1966.072,1367.757 1955.392,1377.385 1953.601,1376.469C1948.724,1373.974 1959.955,1349.548 1960.792,1347.227C1966.753,1350.107 1975.645,1351.02 1969.578,1344.599C1969.118,1344.113 1962.412,1342.283 1961.781,1342.11C1960.155,1338.17 1961.121,1337.911 1958.551,1334.28C1954.067,1327.945 1959.089,1328.418 1966.075,1325.398C1966.916,1320.494 1966.477,1320.598 1967.29,1315.745C1969.018,1305.425 1975.662,1307.648 1974.362,1302.303C1973.845,1300.175 1969.347,1281.677 1976.692,1275.026C1980.84,1271.27 1978.423,1270.249 1979.321,1267.769C1982.299,1270.102 1982.163,1269.906 1985.799,1271.454C1989.441,1267.674 1989.735,1267.721 1989.943,1262.389C1989.027,1257.319 1988.918,1257.357 1988.954,1256.914C1989.063,1255.553 1990.825,1254.689 1990.935,1253.328C1997.052,1257.538 1997.36,1257.969 2004.318,1255.492C2015.874,1251.379 2051.343,1276.537 2058.405,1285.377C2060.434,1287.917 2084.44,1293.534 2063.791,1361.183L2060.024,1379.621C2057.792,1387.743 2057.831,1387.59 2055.745,1395.74C2048.904,1411.458 2034.589,1472.142 2033.709,1478.372C2028.695,1473.951 2028.527,1472.257 2022.277,1475.065C2020.311,1475.949 2014.116,1487.116 2015.689,1488.775C2017.661,1490.856 2020.327,1492.149 2022.592,1493.907C2025.443,1496.12 2024.493,1496.622 2026.577,1499.601C2025.998,1509.72 2024.849,1509.507 2024.802,1510.379C2024.364,1518.546 2032.491,1505.505 2046.555,1510.641L2054.386,1510.502C2054.842,1511.032 2060.574,1517.692 2062.138,1514.553C2062.803,1513.219 2062.009,1511.558 2062.228,1510.084C2063.002,1504.877 2092.909,1511.734 2099.071,1506.574C2099.417,1506.285 2099.357,1506.269 2102.921,1502.459C2107.163,1498.407 2107.18,1498.416 2108.935,1492.653C2114.086,1474.16 2114.496,1473.74 2115.681,1472.523C2125.602,1474.308 2132.625,1479.877 2129.886,1470.135C2130.316,1469.305 2126.556,1466.874 2132.275,1465.518C2147.426,1461.923 2130.95,1459.907 2129.54,1458.364C2127.565,1456.204 2127.529,1456.452 2125.369,1454.397C2126.295,1448.969 2126.573,1449.287 2127.423,1444.026C2129.823,1438.399 2129.767,1438.543 2133.051,1433.398C2137.448,1423.659 2136.741,1423.493 2143.742,1415.054C2144.52,1414.116 2140.755,1413.037 2147.345,1400.256C2150.258,1405.912 2150.202,1405.896 2150.491,1406.364C2150.81,1406.882 2157.427,1412.974 2155.851,1400.978L2155.739,1398.28L2157.377,1393.258C2155.051,1388.56 2154.015,1392.159 2150.09,1395.525L2152.678,1382.193C2162.076,1368.06 2157.727,1366.838 2157.718,1362.932C2157.716,1362.185 2159.523,1362.348 2159.521,1361.601L2160.773,1358.219C2158.877,1351.582 2159.543,1351.691 2160.488,1344.832C2173.44,1310.003 2176.15,1311.48 2189.137,1281.483C2196.064,1265.483 2200.457,1259 2201.684,1257.189C2204.291,1253.341 2205.299,1234.914 2209.199,1235.041C2223.602,1235.51 2223.661,1235.466 2236.435,1242.614C2237.389,1243.148 2248.643,1244.217 2254.197,1249.372C2263.29,1257.809 2264.956,1255.438 2273.94,1264.189C2275.135,1265.354 2275.686,1264.611 2289.821,1277.724C2291.503,1279.284 2292.482,1277.465 2313.056,1294.523C2314.103,1295.391 2313.357,1295.989 2323.466,1307.967C2325.706,1310.621 2324.693,1320.937 2324.934,1323.454C2326.6,1340.886 2327.566,1340.538 2328.183,1358.276C2321.616,1364.056 2320.736,1360.814 2312.224,1359.421C2308.622,1358.907 2307.19,1357.332 2306.92,1360.818C2306.854,1361.668 2306.74,1363.142 2316.596,1365.288C2321.241,1366.337 2328.778,1368.491 2329.832,1368.792C2331.087,1399.57 2332.663,1422.87 2332.98,1427.568C2333.701,1438.235 2330.453,1438.158 2332.753,1448.721C2333.257,1451.036 2332.212,1451.095 2334.727,1478.268C2335.623,1487.948 2327.296,1494.399 2337.185,1493.226C2345.448,1510.179 2349.722,1498.555 2353.355,1495.911C2354.008,1495.436 2355.115,1496.588 2355.768,1496.113C2356.345,1495.145 2358.002,1495.203 2358.58,1494.236C2360.091,1491.704 2358.052,1489.27 2363.898,1488.661C2367.51,1488.284 2384.009,1479.502 2366.706,1475.456C2365.562,1475.189 2357.929,1472.655 2371.289,1461.514C2375.368,1458.113 2369.218,1452.52 2372.354,1446.444C2392.773,1406.882 2397.449,1365.019 2411.577,1339.426C2412.099,1338.481 2412.834,1337.148 2415.049,1326.391C2420.69,1332.486 2421.71,1331.588 2422.227,1331.133C2422.804,1330.625 2425.701,1328.074 2416.806,1323.187C2425.51,1317.101 2420.768,1314.991 2420.992,1310.342C2421.29,1304.169 2425.688,1305.193 2426.302,1288.948C2426.384,1286.785 2426.748,1287.073 2430.66,1262.251C2432.452,1250.881 2445.567,1245.077 2449.358,1245.986C2462.138,1249.051 2460.959,1251.295 2468.565,1261.9C2478.835,1270.364 2479.302,1269.663 2487.736,1279.954C2492.216,1285.42 2495.113,1282.074 2501.004,1290.958C2519.707,1319.165 2534.612,1310.622 2542.308,1350.355C2546.608,1372.549 2546.115,1379.729 2545.938,1382.295C2539.841,1386.002 2539.862,1386.967 2539.876,1387.611C2539.95,1391.025 2541.466,1389.238 2544.859,1388.787C2551.975,1385.778 2550.25,1383.845 2585.338,1310.258C2605.966,1266.997 2604.303,1266.478 2622.868,1222.363C2630.906,1221.277 2631.188,1220.605 2631.464,1219.946C2633.681,1214.655 2634.196,1215.168 2639.066,1212.195C2645.136,1208.489 2633.109,1205.205 2632.007,1203.047C2631.623,1202.295 2633.521,1201.532 2633.137,1200.78C2638.747,1191.844 2644.437,1157.475 2665.429,1163.265C2675.388,1166.013 2696.223,1199.382 2709.805,1209.958C2714.308,1213.465 2731.991,1240.723 2731.297,1256.87C2730.174,1283.012 2733.408,1282.615 2735.284,1291.458C2735.776,1293.779 2732.945,1293.715 2736.344,1321.093C2738.345,1337.21 2729.586,1336.801 2732.95,1352.767C2734.986,1362.43 2724.14,1361.812 2728.21,1400.97C2728.412,1402.912 2725.811,1413.229 2726.55,1416.955C2733.518,1452.085 2719.846,1460.786 2729.034,1463.524C2735.589,1465.477 2737.715,1464.504 2741.087,1451.882C2756.968,1450.056 2756.987,1451.326 2758.16,1450.618C2764.91,1446.545 2757.602,1446.243 2751.838,1440.865C2751.555,1440.41 2752.648,1439.802 2752.365,1439.347C2750.883,1436.967 2743.82,1440.652 2743.156,1440.998C2746.337,1421.908 2749.868,1422.876 2752.49,1403.521C2754.665,1387.469 2755.557,1387.743 2757.063,1371.737C2757.162,1370.686 2760.481,1359.693 2760.485,1358.22C2760.511,1348.416 2760.745,1348.673 2763.161,1339.371C2766.875,1325.072 2762.478,1276.708 2782.693,1278.03C2816.106,1280.216 2811.328,1293.851 2822.961,1298.86C2824.791,1299.648 2831.498,1302.536 2842.366,1314.477C2862.207,1332.448 2866.999,1331.547 2872.662,1350.465C2873.531,1353.367 2879.112,1355.722 2874.085,1374.435C2866.567,1402.423 2859.163,1406.159 2859.046,1411.534C2858.232,1448.684 2848.914,1454.831 2859.56,1455.462C2860.67,1455.527 2860.568,1455.635 2873.273,1457.693C2881.297,1456.781 2881.158,1457.211 2889.339,1456.196C2876.407,1471.312 2896.101,1459.673 2897.604,1459.085C2899.203,1459.686 2900.134,1460.036 2918.495,1463.504C2934.012,1466.434 2956.935,1460.75 2946.997,1452.08C2942.272,1447.959 2950.055,1449.382 2952.402,1443.593C2955.107,1438.483 2955.092,1438.517 2955.324,1438.074C2956.271,1436.26 2962.948,1412.743 2964.147,1400.981L2966.166,1395.546C2966.433,1394.17 2966.018,1394.366 2966.276,1393.037C2967.469,1386.894 2963.822,1387.903 2963.307,1386.824C2971.617,1381.676 2963.091,1377.246 2966.561,1374.137C2970.912,1370.237 2972.709,1371.409 2974.418,1363.576C2979.245,1341.463 2980.917,1340.684 2991.693,1338.218C2996.101,1336.985 2996.07,1337.273 2999.746,1334.519L3001.031,1328.508L3003.86,1326.12C2999.065,1323.563 2999.11,1323.149 2998.694,1323.366C2997.471,1324.004 2997.138,1325.796 2995.914,1326.434C2991.819,1321.367 2990.683,1322.755 2986.804,1317.67C2987.242,1314.675 2989.189,1301.363 2995.291,1280.797C2995.985,1279.108 2995.818,1279.128 2997.439,1269.951C2999.143,1261.374 2999.515,1261.711 3006.904,1238.365C3008.245,1227.556 3014.431,1208.811 3017.174,1208.63C3021.337,1208.354 3024.3,1210.364 3022.936,1206.203C3022.425,1204.641 3019.825,1204.06 3019.507,1203.989C3010.108,1201.888 3026.753,1188.13 3030.448,1182.148C3028.788,1174.46 3024.211,1173.537 3030.021,1168.233C3044.576,1154.947 3032.743,1147.84 3046.656,1133.693L3049.865,1138.757C3049.629,1140.876 3048.104,1139.979 3047.853,1142.233C3047.832,1142.42 3047.723,1143.396 3049.266,1144.118L3052.436,1140.072C3057.602,1129.998 3053.383,1127.939 3061.522,1119.725C3067.048,1114.148 3059.033,1110.143 3063.35,1105.334C3078.24,1088.749 3074.393,1066.376 3081.901,1066.139C3088.565,1065.928 3089.482,1066.1 3091.571,1059.636C3081.484,1058.814 3079.691,1055.454 3085.032,1046.784C3090.11,1038.543 3095.437,1042.463 3097.245,1032.875C3105.04,1015.334 3106.652,1006.068 3107.074,1003.637C3108.082,997.786 3108.61,998.066 3109.589,992.385C3109.625,992.172 3109.589,992.385 3109.786,989.686C3115.711,992.295 3115.719,993.725 3118.169,992.018C3120.741,990.226 3118.811,989.763 3116.26,984.962C3117.666,977.034 3119.521,978.077 3121.172,976.593C3127.002,971.353 3115.626,971.223 3114.969,971.215C3117.505,965.618 3116.976,965.295 3121.787,961.392C3129.094,955.464 3124.997,953.231 3129.293,944.814C3133.259,937.042 3130.74,936.519 3133.755,928.292ZM2049.408,1584.717C2045.74,1590.132 2045.042,1589.426 2038.45,1589.881C2022.294,1592.506 2020.985,1587.14 2006.921,1595.874L2005.114,1598.781C1998.929,1615.517 1992.45,1655.524 1987.204,1664.537C1981.295,1674.69 1978.654,1696.69 1978.876,1697.321C1980.735,1702.63 1976.793,1702.144 1976.756,1707.636C1976.709,1714.514 1975.644,1714.201 1974.146,1720.857C1968.797,1744.63 1971.276,1745.511 1966.163,1752.611C1963.445,1756.385 1965.151,1771.134 1966.062,1772.161C1974.887,1782.116 2001.638,1767.522 2006.466,1763.491C2021.936,1750.575 2031.127,1753.845 2032.253,1742.168C2033.436,1729.9 2037.534,1730.354 2035.139,1718.489C2033.1,1708.391 2042.297,1708.506 2043.799,1702.262C2045.46,1695.359 2053.769,1697.075 2049.383,1691.53C2048.929,1690.956 2047.805,1691.273 2047.351,1690.699L2044.442,1690.596C2036.303,1688.46 2039.653,1685.366 2043.766,1678.212C2044.28,1677.318 2051.652,1671.023 2052.357,1670.421C2050.787,1669.015 2048.276,1668.994 2046.707,1667.588C2045.679,1666.668 2047.953,1659.972 2048.169,1659.337L2052.159,1649.084L2052.524,1644.042C2052.822,1643.586 2054.049,1642.509 2057.252,1648.94C2060.369,1645.202 2059.784,1645.084 2061.322,1640.644C2060.78,1639.998 2061.641,1638.77 2061.099,1638.125C2057.523,1633.866 2055.156,1633.977 2057.63,1630.544C2058.025,1629.995 2058.897,1629.881 2059.222,1629.289C2060.636,1626.72 2060.962,1627.168 2062.837,1624.881C2062.884,1623.884 2061.687,1623.093 2061.734,1622.096C2061.788,1620.962 2066.131,1618.512 2066.561,1618.27C2072.394,1614.979 2063.435,1612.117 2067.76,1603.539C2068.535,1602.003 2076.116,1586.971 2072.834,1582.643C2068.701,1577.19 2051.703,1588.706 2051.555,1588.614C2050.293,1587.835 2050.67,1585.496 2049.408,1584.717ZM1754.695,1387.387C1751.675,1382.33 1751.565,1382.417 1751.433,1381.926C1751.403,1381.813 1759.871,1371.897 1754.699,1364.356C1745.153,1350.441 1753.734,1343.762 1755.366,1336.778C1755.653,1335.551 1758.432,1323.658 1757.658,1321.2C1757.15,1319.583 1750.729,1322.336 1750.078,1326.081C1746.449,1346.938 1710.22,1417.819 1709.982,1419.519C1708.572,1429.59 1706.817,1428.853 1702.629,1438.306C1702.083,1439.537 1703.322,1439.897 1697,1454.167C1682.234,1487.498 1684.816,1488.485 1683.225,1491.218C1681.62,1493.974 1664.306,1523.709 1670.509,1529.008C1670.583,1529.071 1709.92,1528.401 1713.044,1527.723C1715.578,1527.173 1720.219,1526.166 1723.058,1496.887C1726.114,1465.367 1728.625,1465.985 1738.524,1436.071C1738.332,1428.366 1738.175,1428.4 1738.317,1427.75C1738.959,1424.809 1740.487,1425.811 1741.077,1423.088C1741.228,1422.391 1737.217,1407.535 1749.933,1411.362L1749.275,1404.089C1736.45,1391.925 1747.954,1389.754 1754.695,1387.387ZM3454.262,1392.364C3448.267,1406.853 3438.048,1411.621 3432.85,1427.45C3427.465,1443.851 3451.487,1440.635 3452.175,1440.763C3462.701,1442.727 3466.274,1436.973 3470.389,1446.978C3474.399,1448.541 3474.375,1448.336 3477.856,1451.075C3477.901,1450.471 3478.377,1444.12 3478.486,1443.536C3485.415,1406.446 3479.134,1406.159 3480.823,1392.734C3487.368,1340.718 3489.947,1341.134 3490.133,1336.584C3490.955,1316.42 3477.126,1356.494 3472.153,1358.642C3462.418,1362.847 3461.467,1363.339 3460.753,1373.887C3460.001,1384.996 3456.76,1386.327 3454.262,1392.364Z" style="fill:rgb(9,11,11);"/>
    </g>
</svg>
